<svg width="23" height="23" viewBox="0 0 23 23" fill="none" xmlns="http://www.w3.org/2000/svg">
<g clip-path="url(#clip0_1623_604)">
<path d="M10.981 2.4482C11.2785 1.66343 12.4045 1.66343 12.703 2.4482L14.6277 7.77981C14.7626 8.13314 15.1057 8.36839 15.4888 8.36839H20.2188C21.0928 8.36839 21.474 9.45629 20.7869 9.98907L17.4209 13.0175C17.2702 13.1334 17.16 13.2941 17.1062 13.4765C17.0524 13.6589 17.0578 13.8537 17.1215 14.0329L18.3508 19.2427C18.6502 20.0795 17.6813 20.7983 16.9486 20.2832L12.3766 17.3821C12.2201 17.2721 12.0334 17.213 11.842 17.213C11.6506 17.213 11.4639 17.2721 11.3073 17.3821L6.73539 20.2832C6.00362 20.7983 5.03381 20.0786 5.33321 19.2427L6.56244 14.0329C6.62621 13.8537 6.63158 13.6589 6.57779 13.4765C6.524 13.2941 6.41381 13.1334 6.26304 13.0175L2.89707 9.98907C2.209 9.45629 2.59209 8.36839 3.46426 8.36839H8.19428C8.38052 8.36901 8.56255 8.31307 8.7163 8.20797C8.87005 8.10287 8.98826 7.95357 9.0553 7.77981L10.98 2.4482H10.981Z" fill="url(#paint0_angular_1623_604)" stroke="#E0B84C" stroke-width="2" stroke-linecap="round" stroke-linejoin="round"/>
</g>
<defs>
<radialGradient id="paint0_angular_1623_604" cx="0" cy="0" r="1" gradientUnits="userSpaceOnUse" gradientTransform="translate(11.842 1.67363) rotate(90) scale(15.6211 15.6215)">
<stop stop-color="#E0B84C"/>
<stop offset="1" stop-color="#E0B84C" stop-opacity="0"/>
</radialGradient>
<clipPath id="clip0_1623_604">
<rect width="22.3158" height="22.3158" fill="white" transform="translate(0.684082)"/>
</clipPath>
</defs>
</svg>
