<svg width="23" height="23" viewBox="0 0 23 23" fill="none" xmlns="http://www.w3.org/2000/svg">
<path d="M10.2969 2.4482C10.5944 1.66343 11.7204 1.66343 12.0189 2.4482L13.9437 7.77981C14.0785 8.13314 14.4216 8.36839 14.8047 8.36839H19.5347C20.4087 8.36839 20.79 9.45629 20.1028 9.98907L16.7368 13.0175C16.5861 13.1334 16.4759 13.2941 16.4221 13.4765C16.3683 13.6589 16.3737 13.8537 16.4374 14.0329L17.6667 19.2427C17.9661 20.0795 16.9972 20.7983 16.2645 20.2832L11.6926 17.3821C11.536 17.2721 11.3493 17.213 11.1579 17.213C10.9665 17.213 10.7798 17.2721 10.6233 17.3821L6.05131 20.2832C5.31953 20.7983 4.34973 20.0786 4.64913 19.2427L5.87836 14.0329C5.94212 13.8537 5.9475 13.6589 5.89371 13.4765C5.83992 13.2941 5.72973 13.1334 5.57895 13.0175L2.21299 9.98907C1.52492 9.45629 1.90801 8.36839 2.78018 8.36839H7.5102C7.69644 8.36901 7.87847 8.31307 8.03222 8.20797C8.18597 8.10287 8.30418 7.95357 8.37122 7.77981L10.296 2.4482H10.2969Z" fill="#E0B84C" stroke="#E0B84C" stroke-width="2" stroke-linecap="round" stroke-linejoin="round"/>
</svg>
