<svg width="192" height="192" viewBox="0 0 192 192" fill="none" xmlns="http://www.w3.org/2000/svg">
<path d="M178.506 106.518C172.85 121.659 161.299 138.048 145.044 142.902C120.468 150.236 117.55 170.031 73.5591 168.196C67.1331 167.959 60.7518 167.025 54.528 165.408C51.4898 164.605 48.5053 163.611 45.5923 162.432C19.8912 152.022 6.48577 129.112 5.37601 105.143C3.90913 73.6128 25.9047 58.5869 40.201 49.7895C54.4973 40.992 71.7274 6.91203 114.985 8.35971C121.591 8.55791 128.152 9.51655 134.538 11.2167C149.096 15.1565 163.891 23.8695 172.493 36.6068C173.138 37.5667 173.755 38.5447 174.344 39.5405C185.856 59.0669 186.213 85.874 178.506 106.518Z" fill="#55C9C9"/>
<path opacity="0.7" d="M178.506 106.518C172.85 121.659 161.299 138.048 145.044 142.902C120.468 150.236 117.55 170.031 73.5591 168.196C67.1331 167.959 60.7518 167.025 54.528 165.408C51.4898 164.605 48.5053 163.611 45.5923 162.432C19.8912 152.022 6.48577 129.112 5.37601 105.143C3.90913 73.6128 25.9047 58.5869 40.201 49.7895C54.4973 40.992 71.7274 6.91203 114.985 8.35971C121.591 8.55791 128.152 9.51655 134.538 11.2167C149.096 15.1565 163.891 23.8695 172.493 36.6068C173.138 37.5667 173.755 38.5447 174.344 39.5405C185.856 59.0669 186.213 85.874 178.506 106.518Z" fill="white"/>
<g opacity="0.3">
<path opacity="0.3" d="M181.632 41.9789H152.16V83.2397H181.632V41.9789Z" stroke="black" stroke-miterlimit="10"/>
<path opacity="0.3" d="M180.63 43.3805H153.162V81.8343H180.63V43.3805Z" stroke="black" stroke-miterlimit="10"/>
<path opacity="0.3" d="M173.411 53.4874H160.378V71.7313H173.411V53.4874Z" stroke="black" stroke-miterlimit="10"/>
</g>
<g opacity="0.3">
<path opacity="0.3" d="M148.147 42.24H132.238V64.512H148.147V42.24Z" stroke="black" stroke-miterlimit="10"/>
<path opacity="0.3" d="M147.606 42.9965H132.779V63.7517H147.606V42.9965Z" stroke="black" stroke-miterlimit="10"/>
<path opacity="0.3" d="M143.712 48.4531H136.677V58.3027H143.712V48.4531Z" stroke="black" stroke-miterlimit="10"/>
</g>
<path d="M152.513 166.733V136.98" stroke="#5E5E5E" stroke-width="4" stroke-miterlimit="10"/>
<path d="M148.812 167.336V126.244" stroke="#5E5E5E" stroke-width="4" stroke-miterlimit="10"/>
<path d="M157.206 167.535V153.105" stroke="#5E5E5E" stroke-width="4" stroke-miterlimit="10"/>
<path d="M147.372 130.295C147.372 130.295 146.63 128.936 144.154 125.964C141.677 122.991 131.401 114.943 131.401 114.943C131.401 114.943 137.222 118.038 139.081 119.647C140.94 121.256 143.416 123.237 143.416 123.237C143.416 123.237 136.481 115.688 135.736 115.192C134.991 114.697 142.79 121.133 142.79 121.133C142.79 121.133 139.822 115.192 138.336 113.211C136.85 111.229 134.016 106.525 134.016 106.525C134.016 106.525 142.08 117.277 142.437 117.915C142.794 118.552 144.419 121.26 144.419 121.26L141.569 113.829L145.025 119.896C145.025 119.896 140.072 109.62 139.826 109.125C139.58 108.63 143.282 113.952 143.282 113.952L140.064 104.298L147.494 119.524L146.999 113.583L148.358 119.773L148.742 104.544L149.61 119.647C149.61 119.647 150.97 109.993 151.219 108.012C151.469 106.03 151.603 103.926 151.603 103.926C151.603 103.926 151.354 117.047 151.354 117.42C151.354 117.792 151.108 120.764 151.108 120.764L153.458 113.706C153.953 112.22 154.449 107.144 154.698 106.41C154.948 105.677 153.458 117.8 153.335 118.314C153.117 119.122 152.826 119.909 152.467 120.664C152.083 121.409 155.194 116.21 156.307 113.979L159.506 107.52C159.506 107.52 157.647 113.71 157.152 114.816C156.657 115.922 153.439 121.874 153.439 121.874C153.439 121.874 158.269 116.179 160.374 114.693C162.478 113.207 166.314 110.358 166.314 110.358C166.314 110.358 160.128 117.047 158.888 118.272C157.647 119.497 154.057 123.844 154.057 123.844C154.057 123.844 160.247 119.881 160.62 119.509C160.992 119.136 165.45 116.291 165.45 116.291C165.45 116.291 156.461 123.391 156.038 123.844C152.448 127.684 151.212 129.539 150.467 130.28C150.275 130.501 150.037 130.679 149.771 130.801C149.505 130.923 149.216 130.987 148.923 130.989C148.63 130.99 148.34 130.929 148.072 130.809C147.805 130.69 147.566 130.514 147.372 130.295Z" fill="#55C9C9"/>
<path d="M151.646 141.151C150.974 140.065 150.212 139.037 149.368 138.079C147.617 135.978 140.348 130.287 140.348 130.287C140.348 130.287 144.465 132.476 145.778 133.613C147.091 134.749 148.85 136.155 148.85 136.155C148.85 136.155 143.946 130.813 143.42 130.46C142.894 130.107 148.412 134.665 148.412 134.665C148.412 134.665 146.312 130.46 145.26 129.059C144.207 127.657 142.188 124.332 142.188 124.332C142.188 124.332 147.878 131.95 148.143 132.396L149.545 134.761L147.529 129.504L149.983 133.797C149.983 133.797 146.481 126.528 146.304 126.179C146.127 125.829 148.758 129.592 148.758 129.592L146.481 122.761L151.734 133.532L151.384 129.331L152.348 133.709L152.609 122.938L153.216 133.632C153.216 133.632 154.176 126.801 154.368 125.403C154.56 124.005 154.629 122.511 154.629 122.511C154.629 122.511 154.456 131.793 154.456 132.058C154.456 132.323 154.28 134.423 154.28 134.423L155.946 129.431C156.296 128.379 156.645 124.788 156.822 124.262C156.998 123.736 155.946 132.326 155.858 132.668C155.704 133.241 155.498 133.799 155.244 134.335C154.982 134.861 157.164 131.182 157.958 129.604L160.236 125.05C160.236 125.05 158.922 129.431 158.573 130.218C158.223 131.005 155.946 135.21 155.946 135.21C155.946 135.21 159.36 131.182 160.85 130.13C162.34 129.078 165.051 127.058 165.051 127.058C165.051 127.058 160.673 131.785 159.798 132.66C158.922 133.536 156.384 136.604 156.384 136.604C156.384 136.604 160.762 133.801 161.023 133.532C161.284 133.263 164.44 131.259 164.44 131.259C164.44 131.259 158.081 136.278 157.782 136.6C155.244 139.315 154.368 140.628 153.842 141.155C153.705 141.311 153.536 141.436 153.346 141.522C153.157 141.607 152.951 141.651 152.743 141.651C152.535 141.651 152.329 141.606 152.14 141.52C151.951 141.433 151.782 141.307 151.646 141.151Z" fill="#55C9C9"/>
<path d="M156.104 153.654C155.432 152.568 154.671 151.54 153.827 150.582C152.075 148.477 144.806 142.787 144.806 142.787C144.806 142.787 148.923 144.975 150.236 146.116C151.549 147.256 153.308 148.654 153.308 148.654C153.308 148.654 148.404 143.313 147.878 142.963C147.352 142.614 152.87 147.164 152.87 147.164C152.87 147.164 150.77 142.963 149.718 141.562C148.666 140.16 146.646 136.831 146.646 136.831C146.646 136.831 152.337 144.449 152.602 144.895C152.867 145.34 153.999 147.26 153.999 147.26L151.987 142.007L154.437 146.304C154.437 146.304 150.935 139.035 150.762 138.685C150.589 138.336 153.216 142.08 153.216 142.08L150.939 135.249L156.196 146.02L155.843 141.815L156.806 146.193L157.056 135.437L157.667 146.124C157.667 146.124 158.63 139.292 158.819 137.891C159.007 136.489 159.08 134.999 159.08 134.999C159.08 134.999 158.907 144.284 158.907 144.545C158.907 144.806 158.73 146.911 158.73 146.911L160.393 141.919C160.742 140.867 161.096 137.276 161.268 136.75C161.441 136.224 160.393 144.814 160.305 145.16C160.151 145.731 159.947 146.288 159.694 146.822C159.429 147.348 161.614 143.67 162.409 142.095L164.686 137.541C164.686 137.541 163.373 141.919 163.019 142.706C162.666 143.493 160.393 147.698 160.393 147.698C160.393 147.698 163.811 143.67 165.297 142.618C166.783 141.565 169.521 139.546 169.521 139.546C169.521 139.546 165.12 144.284 164.248 145.152C163.377 146.02 160.831 149.092 160.831 149.092C160.831 149.092 165.212 146.289 165.473 146.02C165.734 145.751 168.887 143.743 168.887 143.743C168.887 143.743 162.532 148.765 162.232 149.084C159.694 151.799 158.819 153.112 158.292 153.638C158.157 153.795 157.99 153.921 157.801 154.008C157.613 154.095 157.409 154.141 157.202 154.142C156.994 154.144 156.789 154.101 156.6 154.017C156.41 153.932 156.241 153.809 156.104 153.654Z" fill="#55C9C9"/>
<path d="M160.6 185.188C161.313 182.574 161.671 179.876 161.664 177.166C161.664 176.655 161.664 176.149 161.629 175.649C161.573 174.384 161.438 173.123 161.226 171.875C161.149 171.418 161.061 170.968 160.965 170.527C160.885 170.162 160.796 169.801 160.704 169.448C160.302 167.89 159.722 166.384 158.976 164.959H146.127C145.388 166.385 144.814 167.891 144.415 169.448C144.319 169.801 144.234 170.162 144.154 170.527C144.054 170.968 143.969 171.418 143.889 171.875C143.683 173.124 143.555 174.384 143.505 175.649C143.478 176.149 143.47 176.655 143.47 177.166C143.455 179.875 143.807 182.573 144.515 185.188H160.6Z" fill="white" stroke="#3D4754" stroke-miterlimit="10"/>
<path d="M160.685 169.448H144.415C144.319 169.801 144.234 170.162 144.154 170.527H160.946C160.865 170.162 160.777 169.801 160.685 169.448ZM161.207 171.875H143.889C143.683 173.124 143.555 174.384 143.505 175.649H161.626C161.564 174.384 161.424 173.123 161.207 171.875Z" fill="#3D4754" stroke="#3D4754" stroke-miterlimit="10"/>
<path d="M15.9667 7.67999H122.423V119.117H13.7779V9.86495C13.7779 9.28444 14.0085 8.72771 14.419 8.31723C14.8295 7.90675 15.3862 7.67615 15.9667 7.67615V7.67999Z" fill="#3D4754" stroke="#3D4754" stroke-miterlimit="10"/>
<path d="M19.2615 3.83997H125.077C125.637 3.83997 126.174 4.06248 126.57 4.45856C126.966 4.85463 127.189 5.39183 127.189 5.95197V115.822H17.1495V5.95197C17.1495 5.39183 17.372 4.85463 17.7681 4.45856C18.1642 4.06248 18.7014 3.83997 19.2615 3.83997Z" fill="white" stroke="#3D4754" stroke-miterlimit="10"/>
<path d="M19.2615 3.83997H43.5265C44.0866 3.83997 44.6238 4.06248 45.0199 4.45856C45.416 4.85463 45.6385 5.39183 45.6385 5.95197V115.822H17.1495V5.95197C17.1495 5.39183 17.372 4.85463 17.7681 4.45856C18.1642 4.06248 18.7014 3.83997 19.2615 3.83997Z" fill="#ABABAB"/>
<path d="M19.2615 3.83997H125.077C125.637 3.83997 126.174 4.06248 126.57 4.45856C126.966 4.85463 127.189 5.39183 127.189 5.95197V15.9936H17.1495V5.95197C17.1495 5.39183 17.372 4.85463 17.7681 4.45856C18.1642 4.06248 18.7014 3.83997 19.2615 3.83997Z" fill="#55C9C9" stroke="#3D4754" stroke-miterlimit="10"/>
<path d="M19.2615 3.83997H125.077C125.637 3.83997 126.174 4.06248 126.57 4.45856C126.966 4.85463 127.189 5.39183 127.189 5.95197V11.6812H17.1495V5.95197C17.1495 5.39183 17.372 4.85463 17.7681 4.45856C18.1642 4.06248 18.7014 3.83997 19.2615 3.83997Z" fill="#3D4754" stroke="#3D4754" stroke-miterlimit="10"/>
<path d="M112.397 7.9987C112.397 7.66757 112.299 7.34387 112.115 7.06855C111.931 6.79322 111.669 6.57863 111.363 6.45191C111.057 6.32519 110.721 6.29203 110.396 6.35663C110.071 6.42123 109.773 6.58069 109.539 6.81484C109.305 7.04898 109.145 7.34731 109.081 7.67208C109.016 7.99685 109.049 8.33348 109.176 8.63941C109.302 8.94534 109.517 9.20682 109.792 9.39078C110.068 9.57475 110.391 9.67294 110.723 9.67294C111.166 9.67193 111.592 9.49521 111.905 9.18145C112.219 8.86769 112.396 8.44243 112.397 7.9987Z" fill="white" stroke="#3D4754" stroke-miterlimit="10"/>
<path d="M118.817 7.9987C118.817 7.66757 118.719 7.34387 118.535 7.06855C118.351 6.79322 118.09 6.57863 117.784 6.45191C117.478 6.32519 117.141 6.29203 116.816 6.35663C116.492 6.42123 116.193 6.58069 115.959 6.81484C115.725 7.04898 115.566 7.34731 115.501 7.67208C115.436 7.99685 115.47 8.33348 115.596 8.63941C115.723 8.94534 115.938 9.20682 116.213 9.39078C116.488 9.57475 116.812 9.67294 117.143 9.67294C117.587 9.67193 118.012 9.49521 118.326 9.18145C118.64 8.86769 118.816 8.44243 118.817 7.9987Z" fill="white" stroke="#3D4754" stroke-miterlimit="10"/>
<path d="M125.242 7.99869C125.242 7.66664 125.145 7.34182 124.961 7.06536C124.777 6.78889 124.515 6.57321 124.208 6.44561C123.902 6.31802 123.564 6.28424 123.239 6.34855C122.913 6.41286 122.613 6.57238 122.378 6.80691C122.143 7.04144 121.983 7.34044 121.918 7.66606C121.853 7.99168 121.886 8.32928 122.013 8.63614C122.14 8.94299 122.355 9.2053 122.631 9.38986C122.907 9.57442 123.232 9.67293 123.564 9.67293C124.008 9.67293 124.434 9.49666 124.749 9.18279C125.063 8.86892 125.241 8.44308 125.242 7.99869Z" fill="white" stroke="#3D4754" stroke-miterlimit="10"/>
<path d="M54.0019 15.7325V13.1174" stroke="#3D4754" stroke-miterlimit="10"/>
<path d="M70.2067 15.7325V13.1174" stroke="#3D4754" stroke-miterlimit="10"/>
<path d="M86.4153 15.7325V13.1174" stroke="#3D4754" stroke-miterlimit="10"/>
<path d="M102.62 15.7325V13.1174" stroke="#3D4754" stroke-miterlimit="10"/>
<path d="M118.825 15.7325V13.1174" stroke="#3D4754" stroke-miterlimit="10"/>
<path d="M120.918 26.1119H51.3907V95.1167H120.918V26.1119Z" fill="white" stroke="#3D4754" stroke-miterlimit="10"/>
<path d="M90.3206 43.4841H99.6825" stroke="#3D4754" stroke-miterlimit="10"/>
<path d="M90.3206 50.3654H99.6825" stroke="#3D4754" stroke-miterlimit="10"/>
<path d="M90.3206 57.2428H99.6825" stroke="#3D4754" stroke-miterlimit="10"/>
<path d="M72.3572 72.3878H76.923" stroke="#3D4754" stroke-miterlimit="10"/>
<path d="M61.6935 72.3878H71.3165" stroke="#3D4754" stroke-miterlimit="10"/>
<path d="M57.1392 72.3878H60.3917" stroke="#3D4754" stroke-miterlimit="10"/>
<path d="M64.9459 74.5037H76.9229" stroke="#3D4754" stroke-miterlimit="10"/>
<path d="M57.1392 74.5037H63.9053" stroke="#3D4754" stroke-miterlimit="10"/>
<path d="M71.9693 76.6156H76.9229" stroke="#3D4754" stroke-miterlimit="10"/>
<path d="M62.7341 76.6156H70.6675" stroke="#3D4754" stroke-miterlimit="10"/>
<path d="M57.1392 76.6156H61.5629" stroke="#3D4754" stroke-miterlimit="10"/>
<path d="M57.1392 78.7277H76.9229" stroke="#3D4754" stroke-miterlimit="10"/>
<path d="M65.3338 80.8396H76.9229" stroke="#3D4754" stroke-miterlimit="10"/>
<path d="M57.1392 80.8396H63.9053" stroke="#3D4754" stroke-miterlimit="10"/>
<path d="M73.5283 82.9554H76.9229" stroke="#3D4754" stroke-miterlimit="10"/>
<path d="M57.1392 82.9554H72.4877" stroke="#3D4754" stroke-miterlimit="10"/>
<path d="M74.0506 85.0675H76.9229" stroke="#3D4754" stroke-miterlimit="10"/>
<path d="M62.3424 85.0675H73.271" stroke="#3D4754" stroke-miterlimit="10"/>
<path d="M57.1392 85.0675H61.5629" stroke="#3D4754" stroke-miterlimit="10"/>
<path d="M74.569 87.1794H76.9229" stroke="#3D4754" stroke-miterlimit="10"/>
<path d="M66.766 87.1794H73.1404" stroke="#3D4754" stroke-miterlimit="10"/>
<path d="M57.1392 87.1794H65.856" stroke="#3D4754" stroke-miterlimit="10"/>
<path d="M113.622 41.5872H117.059" stroke="#3D4754" stroke-miterlimit="10"/>
<path d="M105.589 41.5872H112.838" stroke="#3D4754" stroke-miterlimit="10"/>
<path d="M102.159 41.5872H104.609" stroke="#3D4754" stroke-miterlimit="10"/>
<path d="M108.038 44.0754H117.059" stroke="#3D4754" stroke-miterlimit="10"/>
<path d="M102.159 44.0754H107.255" stroke="#3D4754" stroke-miterlimit="10"/>
<path d="M113.326 46.5638H117.059" stroke="#3D4754" stroke-miterlimit="10"/>
<path d="M106.372 46.5638H112.347" stroke="#3D4754" stroke-miterlimit="10"/>
<path d="M102.159 46.5638H105.489" stroke="#3D4754" stroke-miterlimit="10"/>
<path d="M102.159 49.0521H117.059" stroke="#3D4754" stroke-miterlimit="10"/>
<path d="M108.33 51.5366H117.059" stroke="#3D4754" stroke-miterlimit="10"/>
<path d="M102.159 51.5366H107.255" stroke="#3D4754" stroke-miterlimit="10"/>
<path d="M114.501 54.0249H117.059" stroke="#3D4754" stroke-miterlimit="10"/>
<path d="M102.159 54.0249H113.718" stroke="#3D4754" stroke-miterlimit="10"/>
<path d="M114.893 56.5132H117.059" stroke="#3D4754" stroke-miterlimit="10"/>
<path d="M106.076 56.5132H114.305" stroke="#3D4754" stroke-miterlimit="10"/>
<path d="M102.159 56.5132H105.489" stroke="#3D4754" stroke-miterlimit="10"/>
<path d="M115.288 59.0016H117.059" stroke="#3D4754" stroke-miterlimit="10"/>
<path d="M109.409 59.0016H114.209" stroke="#3D4754" stroke-miterlimit="10"/>
<path d="M102.159 59.0016H108.722" stroke="#3D4754" stroke-miterlimit="10"/>
<path d="M67.2 61.5858C65.3642 61.5854 63.5584 61.1204 61.9507 60.2342L63.3792 57.6498C64.9018 58.4913 66.6599 58.8059 68.3799 58.5449C70.0998 58.2839 71.6854 57.4618 72.8898 56.2065C74.0943 54.9513 74.8502 53.3331 75.04 51.6038C75.2298 49.8746 74.8428 48.131 73.9392 46.6444L76.4582 45.1084C77.4588 46.7519 78.0039 48.6322 78.0375 50.5561C78.0712 52.4799 77.5921 54.3781 76.6496 56.0556C75.707 57.7331 74.335 59.1295 72.6743 60.1014C71.0136 61.0733 69.1241 61.5856 67.2 61.5858Z" fill="#55C9C9" stroke="#3D4754" stroke-miterlimit="10"/>
<path d="M61.9469 60.2341C60.0066 59.1613 58.4417 57.5195 57.4632 55.5299C56.4847 53.5403 56.1395 51.2985 56.4743 49.1068C56.809 46.915 57.8076 44.8785 59.3354 43.2717C60.8632 41.6649 62.8468 40.565 65.0189 40.1202L65.6026 43.0156C64.0222 43.3388 62.5788 44.1385 61.4669 45.3071C60.3549 46.4757 59.6278 47.957 59.3834 49.5515C59.1391 51.146 59.3893 52.7771 60.1003 54.225C60.8113 55.673 61.949 56.8682 63.3601 57.6498L61.9469 60.2341Z" fill="#3D4754" stroke="#3D4754" stroke-miterlimit="10"/>
<path d="M73.9353 46.6444C73.2348 45.4857 72.2463 44.5281 71.0661 43.8646C69.8858 43.2011 68.5539 42.8544 67.1999 42.8582C66.67 42.8582 66.1413 42.911 65.6217 43.0156L65.038 40.1203C65.7498 39.9773 66.474 39.9052 67.1999 39.9052C69.0612 39.8987 70.8924 40.3746 72.5149 41.2865C74.1375 42.1984 75.4961 43.5151 76.4582 45.1084L73.9353 46.6444Z" fill="#ABABAB" stroke="#3D4754" stroke-miterlimit="10"/>
<path d="M88.4083 41.7638H85.1597V45.0124H88.4083V41.7638Z" fill="#55C9C9" stroke="#3D4754" stroke-miterlimit="10"/>
<path d="M88.4083 48.7411H85.1597V51.9897H88.4083V48.7411Z" fill="#3D4754" stroke="#3D4754" stroke-miterlimit="10"/>
<path d="M88.4083 55.7145H85.1597V58.9631H88.4083V55.7145Z" fill="#ABABAB" stroke="#3D4754" stroke-miterlimit="10"/>
<path d="M89.0265 74.8877H84.2227V87.7555H89.0265V74.8877Z" fill="#3D4754"/>
<path d="M95.3664 69.1238H90.5626V87.7555H95.3664V69.1238Z" fill="#55C9C9" stroke="#3D4754" stroke-miterlimit="10"/>
<path d="M101.706 77.7676H96.9024V87.7554H101.706V77.7676Z" fill="#3D4754"/>
<path d="M108.042 71.8118H103.238V87.7554H108.042V71.8118Z" fill="#55C9C9" stroke="#3D4754" stroke-miterlimit="10"/>
<path d="M114.382 66.6278H109.578V87.7555H114.382V66.6278Z" fill="#3D4754"/>
<path d="M100.789 31.0809H76.2202V33.4348H100.789V31.0809Z" fill="#3D4754"/>
<path d="M42.5049 23.1743H20.2867V46.9593H42.5049V23.1743Z" fill="white" stroke="#3D4754" stroke-miterlimit="10"/>
<path d="M31.392 39.1065C30.3498 39.1066 29.3246 38.8423 28.4122 38.3385L29.2263 36.8639C30.0903 37.3387 31.0868 37.5153 32.0614 37.3664C33.036 37.2174 33.9343 36.7512 34.6171 36.04C35.2999 35.3288 35.729 34.4123 35.8381 33.4324C35.9472 32.4525 35.7302 31.4641 35.2205 30.6201L36.6528 29.7484C37.2255 30.6813 37.5385 31.7502 37.5595 32.8446C37.5805 33.939 37.3087 35.0192 36.7723 35.9733C36.2359 36.9275 35.4544 37.7211 34.5084 38.2719C33.5625 38.8227 32.4866 39.1109 31.392 39.1065Z" fill="#55C9C9"/>
<path d="M28.416 38.3347C27.3078 37.7296 26.4129 36.7977 25.8532 35.6658C25.2935 34.534 25.0961 33.2571 25.2879 32.0091C25.4796 30.7611 26.0513 29.6024 26.925 28.6909C27.7987 27.7793 28.9321 27.159 30.1709 26.9146L30.5012 28.5581C29.6049 28.7424 28.7866 29.1967 28.1562 29.8598C27.5258 30.523 27.1134 31.3632 26.9746 32.2676C26.8358 33.172 26.9772 34.0972 27.3797 34.9189C27.7822 35.7406 28.4266 36.4193 29.2263 36.864L28.416 38.3347Z" fill="#3D4754"/>
<path d="M35.2205 30.6201C34.8221 29.9593 34.2585 29.4136 33.5852 29.0366C32.912 28.6595 32.1522 28.4642 31.3805 28.4697C31.0801 28.4702 30.7805 28.4998 30.4858 28.5581L30.1556 26.9145C30.5588 26.8332 30.9692 26.792 31.3805 26.7917C32.4382 26.788 33.4787 27.0585 34.4007 27.5767C35.3226 28.0949 36.0946 28.8431 36.6413 29.7485L35.2205 30.6201Z" fill="#ABABAB"/>
<path d="M35.4048 41.2454H38.8417" stroke="#3D4754" stroke-miterlimit="10"/>
<path d="M27.3716 41.2454H34.6215" stroke="#3D4754" stroke-miterlimit="10"/>
<path d="M23.9424 41.2454H26.3923" stroke="#3D4754" stroke-miterlimit="10"/>
<path d="M29.8215 42.4166H38.8417" stroke="#3D4754" stroke-miterlimit="10"/>
<path d="M23.9424 42.4166H29.0381" stroke="#3D4754" stroke-miterlimit="10"/>
<path d="M35.113 43.5917H38.8416" stroke="#3D4754" stroke-miterlimit="10"/>
<path d="M28.1549 43.5917H34.1338" stroke="#3D4754" stroke-miterlimit="10"/>
<path d="M23.9424 43.5917H27.2755" stroke="#3D4754" stroke-miterlimit="10"/>
<path d="M42.5049 55.3882H20.2867V79.1731H42.5049V55.3882Z" fill="white" stroke="#3D4754" stroke-miterlimit="10"/>
<path d="M35.8349 58.007H39.986" stroke="#3D4754" stroke-miterlimit="10"/>
<path d="M26.1312 58.007H30.5472" stroke="#3D4754" stroke-miterlimit="10"/>
<path d="M21.9917 58.007H24.9485" stroke="#3D4754" stroke-miterlimit="10"/>
<path d="M29.0919 60.4954H30.4781" stroke="#3D4754" stroke-miterlimit="10"/>
<path d="M21.9917 60.4954H28.1434" stroke="#3D4754" stroke-miterlimit="10"/>
<path d="M27.0797 62.9836H30.4781" stroke="#3D4754" stroke-miterlimit="10"/>
<path d="M21.9917 62.9836H26.0122" stroke="#3D4754" stroke-miterlimit="10"/>
<path d="M21.9917 65.4719H30.4781" stroke="#3D4754" stroke-miterlimit="10"/>
<path d="M29.4452 67.9603H39.986" stroke="#3D4754" stroke-miterlimit="10"/>
<path d="M21.9917 67.9603H28.1434" stroke="#3D4754" stroke-miterlimit="10"/>
<path d="M36.8986 70.4486H39.986" stroke="#3D4754" stroke-miterlimit="10"/>
<path d="M21.9917 70.4486H35.9539" stroke="#3D4754" stroke-miterlimit="10"/>
<path d="M37.3747 72.9331H39.9859" stroke="#3D4754" stroke-miterlimit="10"/>
<path d="M26.7226 72.9331H36.6643" stroke="#3D4754" stroke-miterlimit="10"/>
<path d="M21.9917 72.9331H26.0122" stroke="#3D4754" stroke-miterlimit="10"/>
<path d="M37.847 75.4214H39.9859" stroke="#3D4754" stroke-miterlimit="10"/>
<path d="M30.7469 75.4214H36.5453" stroke="#3D4754" stroke-miterlimit="10"/>
<path d="M21.9917 75.4214H29.9174" stroke="#3D4754" stroke-miterlimit="10"/>
<path d="M39.9898 58.0262H31.2806V66.7354H39.9898V58.0262Z" stroke="#3D4754" stroke-miterlimit="10"/>
<path d="M31.2806 66.7314L34.6138 63.0258L36.2803 64.1394L38.6918 61.3593L39.8016 61.9161" stroke="#3D4754" stroke-miterlimit="10"/>
<path d="M33.8726 61.7318C34.5894 61.7318 35.1705 61.1507 35.1705 60.4339C35.1705 59.7171 34.5894 59.136 33.8726 59.136C33.1558 59.136 32.5747 59.7171 32.5747 60.4339C32.5747 61.1507 33.1558 61.7318 33.8726 61.7318Z" stroke="#3D4754" stroke-miterlimit="10"/>
<path d="M42.5049 86.0352H20.2867V109.82H42.5049V86.0352Z" fill="white" stroke="#3D4754" stroke-miterlimit="10"/>
<path d="M29.9943 99.6519H38.7226" stroke="#3D4754" stroke-miterlimit="10"/>
<path d="M23.8233 99.6519H28.9152" stroke="#3D4754" stroke-miterlimit="10"/>
<path d="M36.1652 102.14H38.7226" stroke="#3D4754" stroke-miterlimit="10"/>
<path d="M23.8233 102.14H35.3817" stroke="#3D4754" stroke-miterlimit="10"/>
<path d="M36.5568 104.628H38.7226" stroke="#3D4754" stroke-miterlimit="10"/>
<path d="M27.7402 104.628H35.9693" stroke="#3D4754" stroke-miterlimit="10"/>
<path d="M23.8233 104.628H27.1526" stroke="#3D4754" stroke-miterlimit="10"/>
<path d="M36.9485 107.117H38.7226" stroke="#3D4754" stroke-miterlimit="10"/>
<path d="M31.0733 107.117H35.8733" stroke="#3D4754" stroke-miterlimit="10"/>
<path d="M23.8233 107.117H30.3859" stroke="#3D4754" stroke-miterlimit="10"/>
<path d="M26.2886 92.4135H23.9347V98.112H26.2886V92.4135Z" fill="#3D4754"/>
<path d="M29.3952 89.8636H27.0413V98.112H29.3952V89.8636Z" fill="#55C9C9" stroke="#3D4754" stroke-miterlimit="10"/>
<path d="M32.5018 93.6921H30.1479V98.1158H32.5018V93.6921Z" fill="#3D4754"/>
<path d="M35.6045 91.0541H33.2506V98.112H35.6045V91.0541Z" fill="#55C9C9" stroke="#3D4754" stroke-miterlimit="10"/>
<path d="M38.7111 88.7577H36.3572V98.1119H38.7111V88.7577Z" fill="#3D4754"/>
<path d="M101.345 185.188V140.582C101.35 140.198 101.279 139.816 101.136 139.459C100.992 139.102 100.78 138.777 100.511 138.502C100.243 138.227 99.9221 138.008 99.5683 137.857C99.2146 137.706 98.8346 137.626 98.45 137.622H48.7373C47.9609 137.631 47.2199 137.948 46.677 138.503C46.1341 139.058 45.8338 139.806 45.842 140.582V185.188H101.345Z" fill="#D4D4D4" stroke="#3D4754" stroke-miterlimit="10"/>
<path d="M106.883 185.188V140.582C106.891 139.806 106.591 139.058 106.048 138.503C105.505 137.948 104.764 137.631 103.987 137.622H54.2746C53.89 137.626 53.51 137.706 53.1563 137.857C52.8026 138.008 52.4821 138.227 52.2132 138.502C51.9442 138.777 51.7322 139.102 51.5891 139.459C51.446 139.816 51.3747 140.198 51.3793 140.582V185.188H106.883Z" fill="#D4D4D4" stroke="#3D4754" stroke-miterlimit="10"/>
<path d="M134.673 185.188V163.584C134.679 162.987 134.448 162.412 134.03 161.985C133.613 161.558 133.043 161.314 132.445 161.307H104.36C103.764 161.316 103.197 161.561 102.781 161.988C102.366 162.414 102.137 162.988 102.144 163.584V185.203L134.673 185.188Z" fill="#D4D4D4" stroke="#3D4754" stroke-miterlimit="10"/>
<path d="M134.673 185.188V163.642C134.697 163.044 134.483 162.462 134.079 162.021C133.674 161.581 133.112 161.318 132.515 161.292H121.156C120.559 161.318 119.996 161.581 119.592 162.021C119.187 162.462 118.974 163.044 118.998 163.642V185.188H134.673Z" fill="#D4D4D4" stroke="#3D4754" stroke-miterlimit="10"/>
<path d="M129.231 185.188C124.239 181.997 112.358 174.267 109.912 171.414C106.798 167.781 106.149 166.614 103.684 166.744C101.219 166.875 76.0359 170.377 76.0359 170.377C74.9826 171.746 74.2705 173.347 73.9585 175.046C73.6359 177.208 76.2625 183.226 77.1687 185.188H129.231Z" fill="#3D4754" stroke="#3D4754" stroke-miterlimit="10"/>
<path d="M86.0391 118.214C86.4231 118.238 93.8228 118.982 96.7911 120.292C99.7594 121.601 106.134 123.276 108.211 124.186C110.289 125.096 111.452 126.129 111.713 128.855C111.974 131.582 114.44 141.7 114.828 143.386C115.215 145.071 115.864 152.218 115.089 154.418C114.313 156.618 105.105 156.883 105.105 156.883C105.105 156.883 104.974 160.385 105.489 162.332C106.003 164.279 107.305 167.393 103.023 168.169C98.7418 168.945 76.6849 173.622 75.1258 172.581C73.5668 171.541 74.2196 163.5 74.2196 161.553C74.2196 159.606 72.2727 155.585 72.2727 155.585C70.4086 156.037 68.5859 156.644 66.8237 157.402C64.6157 158.438 61.7626 157.92 58.13 156.753C54.4973 155.585 54.2477 152.21 53.2109 150.144C52.1741 148.078 56.713 145.083 57.6192 143.524C58.5255 141.965 64.7578 127.695 65.0189 126.136C65.2801 124.577 68.7783 124.193 73.4669 122.765C73.4516 122.757 83.5738 118.084 86.0391 118.214Z" fill="#55C9C9" stroke="#3D4754" stroke-miterlimit="10"/>
<path d="M80.8589 168.165C84.242 164.456 92.4941 155.827 98.473 153.028" stroke="#3D4754" stroke-miterlimit="10"/>
<path d="M79.319 169.889C79.319 169.889 79.6493 169.505 80.2407 168.853" stroke="#3D4754" stroke-miterlimit="10"/>
<path d="M86.473 160.17C86.8186 159.909 87.1642 159.652 87.5059 159.402" stroke="#3D4754" stroke-miterlimit="10"/>
<path d="M79.9757 165.961C79.9757 165.961 82.249 163.657 84.9178 161.414" stroke="#3D4754" stroke-miterlimit="10"/>
<path d="M67.515 135.748C68.667 140.083 70.2913 145.947 70.921 147.498C71.9578 150.04 72.6183 154.372 72.6183 154.372" fill="white"/>
<path d="M67.515 135.748C68.667 140.083 70.2913 145.947 70.921 147.498C71.9578 150.04 72.6183 154.372 72.6183 154.372" stroke="#3D4754" stroke-miterlimit="10"/>
<path d="M66.217 130.837C66.217 130.837 66.601 132.277 67.1348 134.323L66.217 130.837Z" fill="white"/>
<path d="M66.217 130.837C66.217 130.837 66.601 132.277 67.1348 134.323" stroke="#3D4754" stroke-miterlimit="10"/>
<path d="M65.5105 140.828C64.9565 140.431 64.3343 140.14 63.6749 139.968" stroke="#3D4754" stroke-miterlimit="10"/>
<path d="M62.619 142.902C64.0359 143.205 65.7486 143.82 66.6855 145.052C67.5629 146.169 68.3807 147.332 69.1354 148.535C69.1354 148.535 69.3236 146.746 68.0065 144.015C67.6403 143.235 67.1743 142.506 66.6203 141.846" stroke="#3D4754" stroke-miterlimit="10"/>
<path d="M60.288 142.606C60.288 142.606 60.6528 142.606 61.2173 142.675" stroke="#3D4754" stroke-miterlimit="10"/>
<path d="M58.0263 144.956C58.0263 144.956 61.417 143.359 64.7117 144.676" stroke="#3D4754" stroke-miterlimit="10"/>
<path d="M107.347 134.488L104.433 155.125" stroke="#3D4754" stroke-miterlimit="10"/>
<path d="M107.916 130.46L107.605 132.68" stroke="#3D4754" stroke-miterlimit="10"/>
<path d="M112.128 143.297C112.73 142.95 113.376 142.685 114.048 142.51" stroke="#3D4754" stroke-miterlimit="10"/>
<path d="M104.997 152.678C104.997 152.678 105.281 150.513 108.104 146.842C108.997 145.662 110.076 144.636 111.299 143.804" stroke="#3D4754" stroke-miterlimit="10"/>
<path d="M105.374 152.867C105.374 152.867 108.48 148.815 112.059 148.439" stroke="#3D4754" stroke-miterlimit="10"/>
<path d="M84.4801 117.178C84.4801 117.178 82.2759 117.308 81.7537 118.476C81.2314 119.643 81.2353 129.635 81.2353 129.635C81.2353 129.635 88.7617 126.778 89.7985 126.778C90.8353 126.778 98.8839 129.892 98.8839 129.892C98.8839 129.892 97.8433 122.627 96.0269 119.774C94.2106 116.92 91.0964 117.047 90.0596 117.047C89.0228 117.047 84.4801 117.178 84.4801 117.178Z" fill="white" stroke="#3D4754" stroke-miterlimit="10"/>
<path d="M82.5332 116.268L83.0516 118.994C83.0516 118.994 89.6718 131.708 90.4475 130.802C91.2231 129.896 95.1207 119.512 95.1207 119.512L95.378 115.88C95.378 115.88 92.2638 117.957 90.4475 117.957C88.6311 117.957 83.0516 114.97 83.0516 114.97L82.5332 116.268Z" fill="white" stroke="#3D4754" stroke-miterlimit="10"/>
<path d="M95.378 115.88C95.378 115.88 92.2638 117.957 90.4475 117.957C88.6311 117.957 83.0516 114.97 83.0516 114.97L82.5332 116.268L83.0516 118.994C83.0516 118.994 84.5454 121.862 86.1966 124.777C86.4609 124.678 86.7176 124.56 86.9646 124.424C94.1876 120.372 95.378 115.88 95.378 115.88Z" fill="#3D4754" stroke="#3D4754" stroke-miterlimit="10"/>
<path d="M79.634 106.345C79.634 106.345 78.1402 103.357 77.0957 105.896C76.0513 108.434 80.5287 111.867 80.5287 111.867L79.634 106.345Z" fill="white" stroke="#3D4754" stroke-miterlimit="10"/>
<path d="M97.179 105.677C97.179 105.677 98.5921 102.762 99.3409 105.45C100.09 108.138 97.0369 111.567 97.0369 111.567L97.179 105.677Z" fill="white" stroke="#3D4754" stroke-miterlimit="10"/>
<path d="M79.3344 105.6C79.3344 105.6 80.3827 113.514 80.9779 114.858C81.4887 116.01 86.1658 120.038 87.5328 121.202C87.774 121.407 88.0805 121.518 88.3968 121.517C89.2678 121.537 90.1392 121.495 91.0042 121.39C91.6032 121.24 95.6122 117.55 96.503 115.454C97.3939 113.357 97.1021 101.272 97.1021 101.272C97.1021 101.272 96.6528 93.362 95.7581 92.3175C94.8634 91.2731 83.6659 91.2692 80.8282 92.763C77.9904 94.2567 77.9943 96.795 78.4397 98.2887C78.8851 99.7825 79.3344 105.6 79.3344 105.6Z" fill="white" stroke="#3D4754" stroke-miterlimit="10"/>
<path d="M92.0718 89.7869C87.3178 89.0381 85.5054 90.4128 82.7713 92.1524C82.0999 92.2691 81.4467 92.4731 80.8282 92.7591C77.9943 94.2528 77.9943 96.7911 78.4398 98.2848C78.8852 99.7786 79.3345 105.581 79.3345 105.581L80.3828 105.731C80.3828 105.731 80.5287 102.298 80.6785 101.852C80.8282 101.407 82.6215 99.314 82.7713 98.2695C82.921 97.225 82.6215 94.2375 82.6215 94.2375C82.6215 94.2375 84.2612 99.4637 90.5319 101.253C92.0295 101.689 93.5801 101.917 95.1399 101.929C95.2206 102.785 95.3665 103.596 95.6276 103.791L96.2228 104.241C96.2228 104.241 96.073 106.33 96.5223 106.775C96.6977 106.943 96.9199 107.054 97.1598 107.094C97.179 104.824 97.1598 102.747 97.1329 101.798C99.963 101.395 99.5406 100.347 99.6289 99.0797C99.7594 97.0061 97.7434 90.6855 92.0718 89.7869Z" fill="#3D4754" stroke="#3D4754" stroke-miterlimit="10"/>
<path d="M86.784 111.848C87.1716 112.464 87.7584 112.929 88.4467 113.165C89.4874 113.441 90.5971 113.51 91.7722 111.709" stroke="#3D4754" stroke-miterlimit="10"/>
<path d="M85.1213 114.409C85.1213 114.409 86.4384 116.003 89.28 115.864C92.1216 115.726 93.1584 114.551 93.1584 114.551" stroke="#3D4754" stroke-miterlimit="10"/>
<path d="M83.2513 108.242C83.8021 108.528 84.405 108.7 85.024 108.748C85.6429 108.795 86.2651 108.717 86.8532 108.518" stroke="#3D4754" stroke-miterlimit="10"/>
<path d="M91.3575 108.518C92.0308 108.789 92.7512 108.922 93.4765 108.91C94.2018 108.898 94.9175 108.741 95.5815 108.449" stroke="#3D4754" stroke-miterlimit="10"/>
<path d="M82.7636 105.957C82.7636 105.957 83.8734 104.294 86.8532 105.331" stroke="#3D4754" stroke-miterlimit="10"/>
<path d="M91.4266 105.677C92.0266 105.289 92.7364 105.106 93.4491 105.157C94.1619 105.207 94.8388 105.488 95.378 105.957" stroke="#3D4754" stroke-miterlimit="10"/>
<path d="M86.7841 109.44C86.7841 109.44 85.467 110.481 84.8449 110.688" stroke="#3D4754" stroke-miterlimit="10"/>
<path d="M91.2193 109.214C91.2193 109.214 92.6746 110.75 93.6462 111.084" stroke="#3D4754" stroke-miterlimit="10"/>
<path d="M103.868 154.464C103.868 154.464 105.75 153.055 108.764 151.169C111.779 149.284 114.693 149.852 116.294 151.642C117.896 153.431 118.084 158.419 115.634 160.585C113.184 162.751 109.893 162.182 107.823 161.618C105.754 161.054 103.215 158.888 103.02 158.419C102.824 157.951 103.868 154.464 103.868 154.464Z" fill="#55C9C9" stroke="#3D4754" stroke-miterlimit="10"/>
<path d="M105.093 153.431C105.093 153.431 106.034 152.298 107.351 152.206C108.668 152.114 111.022 153.335 111.575 156.349C112.128 159.364 110.807 161.806 109.221 162.559C107.635 163.311 105.082 162.843 104.517 161.994C104.064 161.217 103.686 160.398 103.388 159.548L105.093 153.431Z" fill="white" stroke="#3D4754" stroke-miterlimit="10"/>
<path d="M103.296 150.229C103.296 150.229 98.1197 146.005 97.5553 145.805C96.9908 145.605 93.0356 146.842 93.0356 146.842L94.0724 150.701C94.0724 150.701 93.6001 151.085 92.0948 149.76C90.5895 148.435 89.6487 146.654 89.0842 147.218C88.5197 147.782 88.2356 148.911 89.5527 150.325C90.8698 151.738 92.6593 153.619 93.6001 154.933C94.5409 156.246 97.2711 156.91 97.2711 156.91C97.2711 156.91 97.9316 158.131 100.474 159.356C103.016 160.581 106.967 161.334 106.967 161.334C106.967 161.334 109.697 158.319 108.661 155.685C108.407 154.96 107.916 154.343 107.267 153.933C106.618 153.523 105.849 153.344 105.086 153.427L103.861 153.143L103.296 150.229Z" fill="white" stroke="#3D4754" stroke-miterlimit="10"/>
<path d="M96.3073 144.972C96.3073 144.972 93.2353 142.472 92.425 142.587C91.6148 142.702 89.8522 143.57 89.1533 144.058C88.4544 144.545 89.0804 145.494 89.9213 145.459C90.5849 145.41 91.2428 145.302 91.8874 145.137L92.3828 144.864L94.6215 148.362" fill="white"/>
<path d="M96.3073 144.972C96.3073 144.972 93.2353 142.472 92.425 142.587C91.6148 142.702 89.8522 143.57 89.1533 144.058C88.4544 144.545 89.0804 145.494 89.9213 145.459C90.5849 145.41 91.2428 145.302 91.8874 145.137L92.3828 144.864L94.6215 148.362" stroke="#3D4754" stroke-miterlimit="10"/>
<path d="M92.3828 144.864L93.5848 144.315" stroke="#3D4754" stroke-miterlimit="10"/>
<path d="M99.84 144.787C99.84 144.787 96.768 142.291 95.9616 142.406C95.1552 142.522 93.385 143.386 92.6861 143.877C91.9872 144.369 92.6131 145.309 93.4541 145.279C94.1179 145.229 94.7759 145.12 95.4202 144.952L95.9155 144.684L98.1504 148.178" fill="white"/>
<path d="M99.84 144.787C99.84 144.787 96.768 142.291 95.9616 142.406C95.1552 142.522 93.385 143.386 92.6861 143.877C91.9872 144.369 92.6131 145.309 93.4541 145.279C94.1179 145.229 94.7759 145.12 95.4202 144.952L95.9155 144.684L98.1504 148.178" stroke="#3D4754" stroke-miterlimit="10"/>
<path d="M95.9156 144.684L97.1175 144.131" stroke="#3D4754" stroke-miterlimit="10"/>
<path d="M102.643 147.31C102.643 147.31 101.138 143.639 100.385 143.359C99.6327 143.078 97.655 142.975 96.8102 143.075C95.9654 143.174 96.0422 144.3 96.8102 144.676C97.4166 144.951 98.0463 145.17 98.6919 145.333H99.2563L99.5366 149.476" fill="white"/>
<path d="M102.643 147.31C102.643 147.31 101.138 143.639 100.385 143.359C99.6327 143.078 97.655 142.975 96.8102 143.075C95.9654 143.174 96.0422 144.3 96.8102 144.676C97.4166 144.951 98.0463 145.17 98.6919 145.333H99.2563L99.5366 149.476" stroke="#3D4754" stroke-miterlimit="10"/>
<path d="M99.2563 145.333L100.573 145.429" stroke="#3D4754" stroke-miterlimit="10"/>
<path d="M103.492 153.9C103.492 153.9 104.341 149.384 104.152 148.908C103.964 148.431 102.363 146.365 101.891 146.365C101.418 146.365 100.481 147.306 100.858 148.247C100.939 148.504 101.086 148.734 101.284 148.916C101.482 149.098 101.724 149.225 101.987 149.284V151.918L101.138 153.051" fill="white"/>
<path d="M103.492 153.9C103.492 153.9 104.341 149.384 104.152 148.908C103.964 148.431 102.363 146.365 101.891 146.365C101.418 146.365 100.481 147.306 100.858 148.247C100.939 148.504 101.086 148.734 101.284 148.916C101.482 149.098 101.724 149.225 101.987 149.284V151.918L101.138 153.051" stroke="#3D4754" stroke-miterlimit="10"/>
<path d="M94.0878 159.149H77.2148L76.2779 138.889H95.0247L94.0878 159.149Z" fill="#3D4754" stroke="#3D4754" stroke-miterlimit="10"/>
<path d="M68.521 150.263C68.521 150.263 61.9047 145.463 61.2558 145.206C60.6068 144.948 56.9742 146.5 54.8967 148.059C52.8193 149.618 52.9498 151.173 53.7447 153.12C54.5396 155.067 57.6346 157.532 58.8058 158.438C59.977 159.345 65.5527 158.822 65.5527 158.822L68.521 150.263Z" fill="#55C9C9" stroke="#3D4754" stroke-miterlimit="10"/>
<path d="M69.8189 150.912C69.8189 150.912 68.3904 148.838 67.7415 148.708C67.0925 148.577 65.1456 150.006 64.1088 151.304C63.072 152.602 62.0314 156.104 62.0314 157.92C62.0314 159.736 65.1456 160.255 65.664 160.255C66.1824 160.255 66.9619 158.699 67.872 158.181C68.7821 157.663 69.8189 150.912 69.8189 150.912Z" fill="white" stroke="#3D4754" stroke-miterlimit="10"/>
<path d="M89.28 157.382C89.28 157.382 91.6301 157.382 92.1946 156.998C92.7591 156.614 94.5485 153.988 94.8327 153.423C95.1168 152.859 93.984 152.859 93.3274 154.08C92.6708 155.301 90.1248 156.246 89.4874 156.622C88.7939 156.927 88.067 157.148 87.3216 157.283L89.28 157.382Z" fill="white" stroke="#3D4754" stroke-miterlimit="10"/>
<path d="M68.5211 150.263L77.9943 151.296C77.9943 151.296 79.5303 146.884 80.1985 146.753C81.5948 146.281 82.9414 145.672 84.219 144.937C84.7412 144.553 85.6475 144.027 85.1291 145.455C84.6107 146.884 81.7537 148.312 81.7537 148.312C81.7537 148.312 84.3495 149.998 85.1291 150.129C85.9086 150.259 91.3575 149.088 91.3575 149.088C91.3575 149.088 95.378 147.552 95.7697 147.79C96.1614 148.028 95.1207 149.088 95.1207 149.088C95.1207 149.088 95.8887 148.57 96.1575 149.219C96.4263 149.868 95.5086 151.165 95.5086 151.165C95.5086 151.165 95.8926 151.423 95.6391 152.463C95.3857 153.504 91.8759 156.353 91.0964 156.876C90.3169 157.398 86.1659 157.524 83.4433 157.524C81.4434 157.484 79.4486 157.31 77.4721 157.002C77.4721 157.002 66.5742 158.822 66.0558 158.822C65.5374 158.822 62.9416 153.508 68.5211 150.263Z" fill="white" stroke="#3D4754" stroke-miterlimit="10"/>
<path d="M95.1207 149.096C95.1207 149.096 90.0596 152.989 89.4106 152.989C88.7617 152.989 84.8679 154.026 84.8679 154.026" fill="white"/>
<path d="M95.1207 149.096C95.1207 149.096 90.0596 152.989 89.4106 152.989C88.7617 152.989 84.8679 154.026 84.8679 154.026" stroke="#3D4754" stroke-miterlimit="10"/>
<path d="M95.5085 151.173C95.5085 151.173 91.488 154.675 91.0964 154.936C90.7047 155.197 86.9453 155.843 86.9453 155.843" fill="white"/>
<path d="M95.5085 151.173C95.5085 151.173 91.488 154.675 91.0964 154.936C90.7047 155.197 86.9453 155.843 86.9453 155.843" stroke="#3D4754" stroke-miterlimit="10"/>
<path d="M131.328 185.188C127.841 179.462 117.178 162.985 110.419 163.63C102.244 164.398 76.1626 175.046 76.1626 175.046L123.494 185.188H131.328Z" fill="#3D4754" stroke="#3D4754" stroke-miterlimit="10"/>
<path d="M73.3172 185.188V163.584C73.3234 162.987 73.0923 162.412 72.6747 161.985C72.2571 161.558 71.6872 161.314 71.09 161.307H54.4052C53.8081 161.314 53.2381 161.558 52.8205 161.985C52.403 162.412 52.1719 162.987 52.178 163.584V185.203L73.3172 185.188Z" fill="#D4D4D4" stroke="#3D4754" stroke-miterlimit="10"/>
<path d="M78.7662 185.188V163.642C78.7796 163.345 78.7344 163.048 78.6332 162.769C78.532 162.49 78.3768 162.233 78.1764 162.014C77.976 161.794 77.7343 161.617 77.4652 161.491C77.1961 161.365 76.9049 161.293 76.6081 161.28H65.2494C64.6521 161.307 64.0897 161.569 63.6853 162.01C63.2809 162.45 63.0673 163.033 63.0913 163.63V185.176L78.7662 185.188Z" fill="#D4D4D4" stroke="#3D4754" stroke-miterlimit="10"/>
<path d="M21.1008 185.188H11.1744" stroke="#3D4754" stroke-miterlimit="10"/>
<path d="M183.713 185.188H25.4016" stroke="#3D4754" stroke-miterlimit="10"/>
</svg>
