<svg width="107" height="43" viewBox="0 0 107 43" fill="none" xmlns="http://www.w3.org/2000/svg">
<path d="M1.5429 40.4571C-2.70138 36.2083 2.11621 24.5021 12.3092 14.3092C22.5021 4.11625 34.2083 -0.703567 38.4571 3.54294C42.7013 7.79166 37.8838 19.4979 27.6908 29.6908C17.4979 39.8838 5.79163 44.7036 1.5429 40.4571ZM4.62279 37.3772C6.43383 39.1904 15.9601 35.2662 24.6154 26.6109C33.2706 17.9557 37.1927 8.42941 35.3816 6.61837C33.5706 4.80511 24.0443 8.7294 15.389 17.3846C6.73382 26.0398 2.81174 35.5661 4.62279 37.3772ZM12.3114 29.6886C2.11622 19.4979 -2.7036 7.79166 1.5429 3.54294C5.79163 -0.701344 17.4979 4.11625 27.6908 14.3092C37.8838 24.5021 42.7036 36.2083 38.4571 40.4571C34.2083 44.7013 22.5021 39.8838 12.3092 29.6908L12.3114 29.6886ZM15.389 26.6109C24.0443 35.2662 33.5706 39.1882 35.3816 37.3772C37.1949 35.5661 33.2706 26.0398 24.6154 17.3846C15.9601 8.7294 6.43383 4.80733 4.62279 6.61837C2.80952 8.42941 6.73382 17.9557 15.389 26.6109ZM20 26.4443C18.8213 26.4443 17.6909 25.976 16.8574 25.1426C16.0239 24.3091 15.5557 23.1787 15.5557 22C15.5557 20.8213 16.0239 19.6909 16.8574 18.8574C17.6909 18.024 18.8213 17.5557 20 17.5557C21.1787 17.5557 22.3091 18.024 23.1426 18.8574C23.976 19.6909 24.4443 20.8213 24.4443 22C24.4443 23.1787 23.976 24.3091 23.1426 25.1426C22.3091 25.976 21.1787 26.4443 20 26.4443Z" fill="url(#paint0_linear_927_302)"/>
<path d="M60.0869 15.7041H63.8467C63.7965 16.7926 63.5029 17.7523 62.9658 18.583C62.4287 19.4137 61.6839 20.0618 60.7314 20.5273C59.7861 20.9857 58.6689 21.2148 57.3799 21.2148C56.3343 21.2148 55.3997 21.0394 54.5762 20.6885C53.7598 20.3376 53.0651 19.8327 52.4922 19.1738C51.9264 18.515 51.4932 17.7165 51.1924 16.7783C50.8988 15.8402 50.752 14.7839 50.752 13.6094V12.7607C50.752 11.5863 50.9059 10.5299 51.2139 9.5918C51.529 8.64648 51.973 7.8444 52.5459 7.18555C53.126 6.51953 53.8206 6.01107 54.6299 5.66016C55.4391 5.30924 56.3379 5.13379 57.3262 5.13379C58.6868 5.13379 59.8363 5.37728 60.7744 5.86426C61.7126 6.35124 62.4395 7.02083 62.9551 7.87305C63.4707 8.7181 63.7751 9.68132 63.8682 10.7627H60.1084C60.0941 10.1755 59.9938 9.6849 59.8076 9.29102C59.6214 8.88997 59.3278 8.58919 58.9268 8.38867C58.5257 8.18815 57.9922 8.08789 57.3262 8.08789C56.8607 8.08789 56.4561 8.17383 56.1123 8.3457C55.7686 8.51758 55.4821 8.78971 55.2529 9.16211C55.0238 9.53451 54.8519 10.0179 54.7373 10.6123C54.6299 11.1995 54.5762 11.9085 54.5762 12.7393V13.6094C54.5762 14.4401 54.6263 15.1491 54.7266 15.7363C54.8268 16.3236 54.988 16.8034 55.21 17.1758C55.432 17.5482 55.7184 17.8239 56.0693 18.0029C56.4274 18.1748 56.8643 18.2607 57.3799 18.2607C57.9528 18.2607 58.4362 18.1712 58.8301 17.9922C59.224 17.806 59.5283 17.5267 59.7432 17.1543C59.958 16.7747 60.0726 16.2913 60.0869 15.7041ZM78.8643 12.8682V13.502C78.8643 14.6979 78.696 15.7721 78.3594 16.7246C78.0299 17.6699 77.5609 18.4792 76.9521 19.1523C76.3434 19.8184 75.6237 20.3304 74.793 20.6885C73.9622 21.0394 73.0456 21.2148 72.043 21.2148C71.0332 21.2148 70.1094 21.0394 69.2715 20.6885C68.4408 20.3304 67.7174 19.8184 67.1016 19.1523C66.4928 18.4792 66.0202 17.6699 65.6836 16.7246C65.3542 15.7721 65.1895 14.6979 65.1895 13.502V12.8682C65.1895 11.6722 65.3542 10.598 65.6836 9.64551C66.0202 8.69303 66.4893 7.88379 67.0908 7.21777C67.6995 6.5446 68.4193 6.03255 69.25 5.68164C70.0879 5.32357 71.0117 5.14453 72.0215 5.14453C73.0241 5.14453 73.9408 5.32357 74.7715 5.68164C75.6094 6.03255 76.3327 6.5446 76.9414 7.21777C77.5501 7.88379 78.0228 8.69303 78.3594 9.64551C78.696 10.598 78.8643 11.6722 78.8643 12.8682ZM75.04 13.502V12.8467C75.04 12.0732 74.972 11.3929 74.8359 10.8057C74.707 10.2113 74.5137 9.71354 74.2559 9.3125C73.998 8.91146 73.6794 8.61068 73.2998 8.41016C72.9274 8.20247 72.5013 8.09863 72.0215 8.09863C71.5202 8.09863 71.0833 8.20247 70.7109 8.41016C70.3385 8.61068 70.027 8.91146 69.7764 9.3125C69.5257 9.71354 69.3359 10.2113 69.207 10.8057C69.0853 11.3929 69.0244 12.0732 69.0244 12.8467V13.502C69.0244 14.2682 69.0853 14.9486 69.207 15.543C69.3359 16.1302 69.5257 16.6279 69.7764 17.0361C70.0342 17.4443 70.3493 17.7523 70.7217 17.96C71.1012 18.1676 71.5417 18.2715 72.043 18.2715C72.5228 18.2715 72.9489 18.1676 73.3213 17.96C73.6937 17.7523 74.0052 17.4443 74.2559 17.0361C74.5137 16.6279 74.707 16.1302 74.8359 15.543C74.972 14.9486 75.04 14.2682 75.04 13.502ZM91.1533 18.0996V21H83.2471V18.0996H91.1533ZM84.5898 5.35938V21H80.8193V5.35938H84.5898ZM98.9844 15.6934H95.0957V12.7822H98.9844C99.5143 12.7822 99.944 12.6927 100.273 12.5137C100.603 12.3346 100.843 12.0876 100.993 11.7725C101.151 11.4502 101.229 11.0885 101.229 10.6875C101.229 10.2578 101.151 9.86035 100.993 9.49512C100.843 9.12988 100.603 8.83626 100.273 8.61426C99.944 8.38509 99.5143 8.27051 98.9844 8.27051H96.5137V21H92.7432V5.35938H98.9844C100.238 5.35938 101.315 5.58854 102.218 6.04688C103.127 6.50521 103.826 7.13542 104.312 7.9375C104.799 8.73242 105.043 9.64193 105.043 10.666C105.043 11.6758 104.799 12.5566 104.312 13.3086C103.826 14.0605 103.127 14.6478 102.218 15.0703C101.315 15.4857 100.238 15.6934 98.9844 15.6934Z" fill="url(#paint1_linear_927_302)"/>
<path d="M51.5996 26.2031H55.7568C56.6416 26.2031 57.4092 26.3467 58.0596 26.6338C58.71 26.9209 59.2109 27.3457 59.5625 27.9082C59.9199 28.4648 60.0986 29.1504 60.0986 29.9648C60.0986 30.5684 59.9697 31.1162 59.7119 31.6084C59.46 32.1006 59.1113 32.5137 58.666 32.8477C58.2207 33.1758 57.7051 33.4014 57.1191 33.5244L56.7412 33.665H52.3027L52.2852 32.7422H56.0029C56.6709 32.7422 57.2275 32.6133 57.6729 32.3555C58.1182 32.0977 58.4521 31.7578 58.6748 31.3359C58.9033 30.9082 59.0176 30.4512 59.0176 29.9648C59.0176 29.3848 58.8916 28.8838 58.6396 28.4619C58.3936 28.0342 58.0273 27.7061 57.541 27.4775C57.0547 27.249 56.46 27.1348 55.7568 27.1348H52.6807V39H51.5996V26.2031ZM59.501 39L56.1875 33.2783L57.3477 33.2695L60.6523 38.8857V39H59.501ZM67.2171 39.1758C66.596 39.1758 66.0247 39.0615 65.5032 38.833C64.9876 38.6045 64.5364 38.2822 64.1497 37.8662C63.7688 37.4502 63.4729 36.958 63.262 36.3896C63.0569 35.8154 62.9544 35.1885 62.9544 34.5088V34.1309C62.9544 33.3984 63.0628 32.7363 63.2796 32.1445C63.4964 31.5527 63.7952 31.0459 64.1761 30.624C64.5569 30.2021 64.9905 29.8799 65.4768 29.6572C65.969 29.4287 66.4846 29.3145 67.0237 29.3145C67.6272 29.3145 68.1634 29.4229 68.6321 29.6396C69.1009 29.8506 69.4934 30.1523 69.8098 30.5449C70.1321 30.9316 70.3753 31.3916 70.5393 31.9248C70.7034 32.4521 70.7854 33.0352 70.7854 33.6738V34.3154H63.5872V33.4189H69.7395V33.2959C69.7278 32.7627 69.6194 32.2646 69.4143 31.8018C69.2151 31.333 68.9163 30.9521 68.5179 30.6592C68.1194 30.3662 67.6214 30.2197 67.0237 30.2197C66.5784 30.2197 66.1682 30.3135 65.7932 30.501C65.4241 30.6885 65.1048 30.958 64.8352 31.3096C64.5716 31.6553 64.3665 32.0684 64.22 32.5488C64.0794 33.0234 64.0091 33.5508 64.0091 34.1309V34.5088C64.0091 35.0361 64.0852 35.5283 64.2376 35.9854C64.3958 36.4365 64.6184 36.835 64.9055 37.1807C65.1985 37.5264 65.5442 37.7959 65.9427 37.9893C66.3411 38.1826 66.7805 38.2793 67.261 38.2793C67.8235 38.2793 68.3216 38.1768 68.7552 37.9717C69.1888 37.7607 69.5784 37.4297 69.9241 36.9785L70.5833 37.4883C70.3782 37.793 70.1204 38.0742 69.8098 38.332C69.5052 38.5898 69.1389 38.7949 68.7112 38.9473C68.2835 39.0996 67.7854 39.1758 67.2171 39.1758ZM74.6168 31.3184V42.6562H73.5621V29.4902H74.5464L74.6168 31.3184ZM81.2261 34.1572V34.3418C81.2261 35.0508 81.1441 35.7012 80.98 36.293C80.816 36.8848 80.5787 37.3975 80.2681 37.8311C79.9634 38.2588 79.5855 38.5898 79.1343 38.8242C78.6832 39.0586 78.1705 39.1758 77.5963 39.1758C77.0279 39.1758 76.5211 39.0879 76.0757 38.9121C75.6304 38.7363 75.2466 38.4873 74.9244 38.165C74.608 37.8369 74.3531 37.4561 74.1597 37.0225C73.9722 36.583 73.8404 36.1025 73.7642 35.5811V33.1465C73.8521 32.5723 73.9957 32.0508 74.1949 31.582C74.3941 31.1133 74.649 30.709 74.9595 30.3691C75.2759 30.0293 75.6509 29.7686 76.0845 29.5869C76.5181 29.4053 77.0132 29.3145 77.5699 29.3145C78.15 29.3145 78.6656 29.4287 79.1168 29.6572C79.5738 29.8799 79.9576 30.2051 80.2681 30.6328C80.5845 31.0547 80.8218 31.5645 80.98 32.1621C81.1441 32.7539 81.2261 33.4189 81.2261 34.1572ZM80.1714 34.3418V34.1572C80.1714 33.6006 80.1129 33.085 79.9957 32.6104C79.8843 32.1357 79.7115 31.7227 79.4771 31.3711C79.2486 31.0137 78.9556 30.7354 78.5982 30.5361C78.2466 30.3369 77.8277 30.2373 77.3414 30.2373C76.8375 30.2373 76.4068 30.3223 76.0494 30.4922C75.6978 30.6562 75.4048 30.876 75.1705 31.1514C74.9361 31.4209 74.7515 31.7168 74.6168 32.0391C74.482 32.3613 74.3824 32.6777 74.3179 32.9883V35.792C74.4293 36.2373 74.608 36.6504 74.8541 37.0312C75.1002 37.4062 75.4283 37.708 75.8384 37.9365C76.2545 38.1592 76.7613 38.2705 77.3589 38.2705C77.8394 38.2705 78.2554 38.1709 78.607 37.9717C78.9586 37.7725 79.2486 37.4941 79.4771 37.1367C79.7115 36.7793 79.8843 36.3633 79.9957 35.8887C80.1129 35.4141 80.1714 34.8984 80.1714 34.3418ZM83.7039 34.3945V34.1045C83.7039 33.4131 83.8036 32.7744 84.0028 32.1885C84.202 31.6025 84.4862 31.0957 84.8553 30.668C85.2303 30.2402 85.6786 29.9092 86.2 29.6748C86.7215 29.4346 87.3016 29.3145 87.9403 29.3145C88.5848 29.3145 89.1678 29.4346 89.6893 29.6748C90.2108 29.9092 90.659 30.2402 91.034 30.668C91.409 31.0957 91.6961 31.6025 91.8954 32.1885C92.0946 32.7744 92.1942 33.4131 92.1942 34.1045V34.3945C92.1942 35.0859 92.0946 35.7246 91.8954 36.3105C91.6961 36.8906 91.409 37.3945 91.034 37.8223C90.6649 38.25 90.2196 38.584 89.6981 38.8242C89.1766 39.0586 88.5965 39.1758 87.9579 39.1758C87.3133 39.1758 86.7303 39.0586 86.2088 38.8242C85.6873 38.584 85.2391 38.25 84.8641 37.8223C84.4891 37.3945 84.202 36.8906 84.0028 36.3105C83.8036 35.7246 83.7039 35.0859 83.7039 34.3945ZM84.7498 34.1045V34.3945C84.7498 34.916 84.8202 35.4111 84.9608 35.8799C85.1014 36.3428 85.3065 36.7559 85.576 37.1191C85.8455 37.4766 86.1795 37.7578 86.578 37.9629C86.9764 38.168 87.4364 38.2705 87.9579 38.2705C88.4735 38.2705 88.9276 38.168 89.3202 37.9629C89.7186 37.7578 90.0526 37.4766 90.3221 37.1191C90.5916 36.7559 90.7938 36.3428 90.9286 35.8799C91.0692 35.4111 91.1395 34.916 91.1395 34.3945V34.1045C91.1395 33.5889 91.0692 33.0996 90.9286 32.6367C90.7938 32.1738 90.5887 31.7607 90.3133 31.3975C90.0438 31.0342 89.7098 30.7471 89.3114 30.5361C88.9129 30.3252 88.4559 30.2197 87.9403 30.2197C87.4246 30.2197 86.9676 30.3252 86.5692 30.5361C86.1766 30.7471 85.8426 31.0342 85.5672 31.3975C85.2977 31.7607 85.0926 32.1738 84.952 32.6367C84.8172 33.0996 84.7498 33.5889 84.7498 34.1045ZM96.1398 31.0635V39H95.0939V29.4902H96.1134L96.1398 31.0635ZM99.506 29.4199L99.4796 30.3867C99.3624 30.3691 99.2482 30.3545 99.1368 30.3428C99.0255 30.3311 98.9054 30.3252 98.7765 30.3252C98.3195 30.3252 97.9181 30.4102 97.5724 30.5801C97.2325 30.7441 96.9454 30.9756 96.7111 31.2744C96.4767 31.5674 96.298 31.9131 96.1749 32.3115C96.0519 32.7041 95.9816 33.126 95.964 33.5771L95.5773 33.7266C95.5773 33.1055 95.6417 32.5283 95.7706 31.9951C95.8995 31.4619 96.0958 30.9961 96.3595 30.5977C96.629 30.1934 96.9659 29.8799 97.3702 29.6572C97.7804 29.4287 98.2609 29.3145 98.8116 29.3145C98.9464 29.3145 99.0782 29.3262 99.2071 29.3496C99.3419 29.3672 99.4415 29.3906 99.506 29.4199ZM105.912 29.4902V30.3516H101.149V29.4902H105.912ZM102.898 27.0469H103.944V36.6885C103.944 37.1279 104.002 37.459 104.12 37.6816C104.237 37.9043 104.389 38.0537 104.577 38.1299C104.764 38.2061 104.966 38.2441 105.183 38.2441C105.341 38.2441 105.494 38.2354 105.64 38.2178C105.787 38.1943 105.918 38.1709 106.036 38.1475L106.079 39.0352C105.951 39.0762 105.784 39.1084 105.579 39.1318C105.373 39.1611 105.168 39.1758 104.963 39.1758C104.559 39.1758 104.202 39.1025 103.891 38.9561C103.58 38.8037 103.337 38.5459 103.162 38.1826C102.986 37.8135 102.898 37.3125 102.898 36.6797V27.0469Z" fill="url(#paint2_linear_927_302)"/>
<defs>
<linearGradient id="paint0_linear_927_302" x1="40.168" y1="42.1681" x2="0.167971" y2="2.16813" gradientUnits="userSpaceOnUse">
<stop stop-color="#55C9C9" stop-opacity="0.55"/>
<stop offset="0.447917" stop-color="#55C9C9" stop-opacity="0.8"/>
<stop offset="1" stop-color="#55C9C9"/>
</linearGradient>
<linearGradient id="paint1_linear_927_302" x1="78" y1="0" x2="78" y2="26" gradientUnits="userSpaceOnUse">
<stop stop-color="#55C9C9" stop-opacity="0.55"/>
<stop offset="0.489583" stop-color="#55C9C9" stop-opacity="0.8"/>
<stop offset="1" stop-color="#55C9C9"/>
</linearGradient>
<linearGradient id="paint2_linear_927_302" x1="78.5" y1="22" x2="78.5" y2="43" gradientUnits="userSpaceOnUse">
<stop stop-color="#55C9C9" stop-opacity="0.55"/>
<stop offset="0.489583" stop-color="#55C9C9" stop-opacity="0.8"/>
<stop offset="1" stop-color="#55C9C9"/>
</linearGradient>
</defs>
</svg>
