<svg width="14" height="14" viewBox="0 0 14 14" fill="none" xmlns="http://www.w3.org/2000/svg">
<g clip-path="url(#clip0_928_23)">
<path d="M13.8514 7.15742C13.8514 6.69659 13.8105 6.25909 13.7405 5.83325H7.14888V8.46409H10.923C10.7539 9.32742 10.258 10.0566 9.52305 10.5524V12.3024H11.7747C13.093 11.0833 13.8514 9.28659 13.8514 7.15742Z" fill="#4285F4"/>
<path d="M7.1488 13.9999C9.0388 13.9999 10.6196 13.3699 11.7746 12.3024L9.52297 10.5524C8.89297 10.9724 8.0938 11.229 7.1488 11.229C5.32297 11.229 3.77713 9.99819 3.22297 8.33569H0.901299V10.1382C2.05047 12.4249 4.41297 13.9999 7.1488 13.9999Z" fill="#34A853"/>
<path d="M3.22305 8.33574C3.07721 7.91574 3.00138 7.46657 3.00138 6.9999C3.00138 6.53324 3.08305 6.08407 3.22305 5.66407V3.86157H0.901379C0.423046 4.80657 0.14888 5.86824 0.14888 6.9999C0.14888 8.13157 0.423046 9.19324 0.901379 10.1382L3.22305 8.33574Z" fill="#FBBC05"/>
<path d="M7.1488 2.77083C8.1813 2.77083 9.10296 3.12667 9.83213 3.82083L11.8271 1.82583C10.6196 0.694167 9.0388 0 7.1488 0C4.41297 0 2.05047 1.575 0.901299 3.86167L3.22297 5.66417C3.77713 4.00167 5.32297 2.77083 7.1488 2.77083Z" fill="#EA4335"/>
</g>
<defs>
<clipPath id="clip0_928_23">
<rect width="14" height="14" fill="white"/>
</clipPath>
</defs>
</svg>
